<svg id="instagram" xmlns="http://www.w3.org/2000/svg" width="14.306" height="14.306" viewBox="0 0 14.306 14.306">
  <path id="Path_41" data-name="Path 41" d="M10.044,0H4.262A4.267,4.267,0,0,0,0,4.262v5.782a4.267,4.267,0,0,0,4.262,4.262h5.782a4.267,4.267,0,0,0,4.262-4.262V4.262A4.267,4.267,0,0,0,10.044,0Zm2.823,10.044a2.823,2.823,0,0,1-2.823,2.823H4.262a2.823,2.823,0,0,1-2.823-2.823V4.262A2.823,2.823,0,0,1,4.262,1.439h5.782a2.823,2.823,0,0,1,2.823,2.823v5.782Z"/>
  <path id="Path_42" data-name="Path 42" d="M136.7,133a3.7,3.7,0,1,0,3.7,3.7A3.7,3.7,0,0,0,136.7,133Zm0,5.961a2.261,2.261,0,1,1,2.261-2.261A2.261,2.261,0,0,1,136.7,138.961Z" transform="translate(-129.547 -129.547)"/>
  <circle id="Ellipse_2" data-name="Ellipse 2" cx="0.887" cy="0.887" r="0.887" transform="translate(9.974 2.594)"/>
</svg>